<?xml version="1.0" encoding="utf-8"?>
<!-- Generator: Adobe Illustrator 27.2.0, SVG Export Plug-In . SVG Version: 6.00 Build 0)  -->
<svg version="1.1" id="Layer_1" xmlns="http://www.w3.org/2000/svg" xmlns:xlink="http://www.w3.org/1999/xlink" x="0px" y="0px"
	 viewBox="0 0 334.6 139" style="enable-background:new 0 0 334.6 139;" xml:space="preserve">
<style type="text/css">
	.st0{fill:url(#SVGID_1_);}
	.st1{fill:#D4D6D7;}
	.st2{fill:#3B3A3C;}
	.st3{fill:url(#SVGID_00000024682379803957703010000011381134429343921298_);}
	.st4{opacity:0.33;}
	.st5{fill:#231F20;}
	.st6{fill:#F89F1B;}
	.st7{fill:#434345;}
	.st8{fill:#231F20;stroke:#FFFFFF;stroke-width:2;stroke-linecap:round;stroke-linejoin:round;stroke-miterlimit:10;}
</style>
<g>
	<linearGradient id="SVGID_1_" gradientUnits="userSpaceOnUse" x1="25.3557" y1="9.3676" x2="333.1154" y2="140.0206">
		<stop  offset="0" style="stop-color:#EAEBEC"/>
		<stop  offset="1" style="stop-color:#E3E4E5"/>
	</linearGradient>
	<path class="st0" d="M17.7,138.9c-9.9,0-17.9-8-17.9-17.9V18.1c0-9.9,8-17.9,17.9-17.9h298.6c9.9,0,17.9,8,17.9,17.9v102.9
		c0,9.9-8,17.9-17.9,17.9H17.7z"/>
	<path class="st1" d="M316.3,0.3c9.8,0,17.8,8,17.8,17.8v102.9c0,9.8-8,17.8-17.8,17.8H17.7c-9.8,0-17.8-8-17.8-17.8V18.1
		c0-9.8,8-17.8,17.8-17.8H316.3 M316.3,0H17.7c-9.9,0-18,8.1-18,18v102.9c0,9.9,8.1,18,18,18h298.6c9.9,0,18-8.1,18-18V18.1
		C334.3,8.1,326.2,0,316.3,0L316.3,0z"/>
</g>
<path class="st2" d="M121.2,138.7H18.3c-9.8,0-17.8-8-17.8-17.8V18.1c0-9.8,8-17.8,17.8-17.8h102.9c9.8,0,17.8,8,17.8,17.8v102.9
	C139,130.8,131,138.7,121.2,138.7z"/>
<linearGradient id="SVGID_00000035491343853097362560000004794491501565490816_" gradientUnits="userSpaceOnUse" x1="-2.9536" y1="16.7915" x2="108.8374" y2="98.4883">
	<stop  offset="0" style="stop-color:#333333"/>
	<stop  offset="1" style="stop-color:#1C1C1C"/>
</linearGradient>
<path style="fill:url(#SVGID_00000035491343853097362560000004794491501565490816_);" d="M120.6,138.7H17.7c-9.8,0-17.8-8-17.8-17.8
	V18.1c0-9.8,8-17.8,17.8-17.8h102.9c9.8,0,17.8,8,17.8,17.8v102.9C138.4,130.8,130.4,138.7,120.6,138.7z"/>
<g class="st4">
	<path class="st5" d="M50.4,43.4c12.7,0,18.1,6,18.1,14.8c0,6.2-2.7,10-7.8,12c5.1,2.1,8,6.1,8,12.3c0,8.6-5.4,14.9-18.1,14.9h-24
		c-3,0-4.5-1.4-4.5-4.4V47.8c0-3,1.4-4.4,4.5-4.4H50.4z M31.4,66.2h19.2c5.6,0,8.3-2.1,8.3-6.5c0-4.2-2.5-7-8.2-7H32.5
		c-0.6,0-1,0.3-1,1V66.2z M31.4,87.1c0,0.6,0.4,0.9,1,0.9h18.4c5.7,0,8.3-2.6,8.3-7c0-4.6-2.8-7-8.3-7H31.4V87.1z"/>
	<path class="st5" d="M116.5,43.4v9.4h-15.8v44.6h-9.5V52.8H75.4v-9.4H116.5z"/>
</g>
<g class="st4">
	<path class="st5" d="M191.6,43.4c12.2,0,17.4,7.5,17.4,16.2c0,8.2-4.7,17-17.4,17h-16.8c-0.9,0-1.4,0.4-1.4,1.4v19.5H164V76
		c0-6.1,2.6-8.6,8.5-8.6h19.4c5.4,0,7.5-3.7,7.5-7.4c0-3.9-2.3-7.2-7.4-7.2h-28.1v-9.4H191.6z"/>
	<path class="st5" d="M241.9,55.1c10.6,0,14.7,5.9,14.7,13.9v19.8c0,6.1-1.6,8.5-8.7,8.5h-19.8c-10,0-14.2-4.9-14.2-12.9
		c0-7.7,3.8-12.2,14.2-12.2h20.1v-3.2c0-3.3-1.8-5.8-6.5-5.8h-25.3v-8.2H241.9z M248.3,87V79h-19.9c-4.5,0-6.1,1.8-6.1,5
		s1.7,5.1,5.9,5.1h17.8C247.6,89.1,248.3,88.5,248.3,87z"/>
	<path class="st5" d="M310.4,55.1L285,114.3h-9.1l7.9-18.5c-4.8,0-6.5-1.5-7.9-5.2l-14.2-35.5h9l12.7,31.4c0.6,1.5,1,1.8,2.6,1.8
		h1.1l14.3-33.2H310.4z"/>
</g>
<g>
	<path class="st6" d="M51.4,42.4c12.7,0,18.1,6,18.1,14.8c0,6.2-2.7,10-7.8,12c5.1,2.1,8,6.1,8,12.3c0,8.6-5.4,14.9-18.1,14.9h-24
		c-3,0-4.5-1.4-4.5-4.4V46.8c0-3,1.4-4.4,4.5-4.4H51.4z M32.4,65.2h19.2c5.6,0,8.3-2.1,8.3-6.5c0-4.2-2.5-7-8.2-7H33.5
		c-0.6,0-1,0.3-1,1V65.2z M32.4,86.1c0,0.6,0.4,0.9,1,0.9h18.4c5.7,0,8.3-2.6,8.3-7c0-4.6-2.8-7-8.3-7H32.4V86.1z"/>
	<path class="st6" d="M117.5,42.4v9.4h-15.8v44.6h-9.5V51.8H76.4v-9.4H117.5z"/>
</g>
<g>
	<path class="st7" d="M192.6,42.4c12.2,0,17.4,7.5,17.4,16.2c0,8.2-4.7,17-17.4,17h-16.8c-0.9,0-1.4,0.4-1.4,1.4v19.5H165V75
		c0-6.1,2.6-8.6,8.5-8.6h19.4c5.4,0,7.5-3.7,7.5-7.4c0-3.9-2.3-7.2-7.4-7.2h-28.1v-9.4H192.6z"/>
	<path class="st7" d="M242.9,54.1c10.6,0,14.7,5.9,14.7,13.9v19.8c0,6.1-1.6,8.5-8.7,8.5h-19.8c-10,0-14.2-4.9-14.2-12.9
		c0-7.7,3.8-12.2,14.2-12.2h20.1v-3.2c0-3.3-1.8-5.8-6.5-5.8h-25.3v-8.2H242.9z M249.3,86V78h-19.9c-4.5,0-6.1,1.8-6.1,5
		s1.7,5.1,5.9,5.1h17.8C248.6,88.1,249.3,87.5,249.3,86z"/>
	<path class="st7" d="M311.4,54.1L286,113.3h-9.1l7.9-18.5c-4.8,0-6.5-1.5-7.9-5.2l-14.2-35.5h9l12.7,31.4c0.6,1.5,1,1.8,2.6,1.8
		h1.1l14.3-33.2H311.4z"/>
</g>
<polygon class="st8" points="75,96 87.5,130.4 93.6,122.3 103.8,133.1 107,130.1 110.2,127.1 100,116.2 108.5,110.6 "/>
</svg>
