<?xml version="1.0" encoding="utf-8"?>
<!-- Generator: Adobe Illustrator 27.2.0, SVG Export Plug-In . SVG Version: 6.00 Build 0)  -->
<svg version="1.1" id="Layer_1" xmlns="http://www.w3.org/2000/svg" xmlns:xlink="http://www.w3.org/1999/xlink" x="0px" y="0px"
	 viewBox="0 0 138.5 138.5" style="enable-background:new 0 0 138.5 138.5;" xml:space="preserve">
<style type="text/css">
	.st0{fill:#3B3A3C;}
	.st1{opacity:0.33;}
	.st2{fill:#231F20;}
	.st3{fill:#F89F1B;}
	.st4{fill:#231F20;stroke:#FFFFFF;stroke-width:2;stroke-linecap:round;stroke-linejoin:round;stroke-miterlimit:10;}
</style>
<path class="st0" d="M120.4,138.7H17.6c-9.8,0-17.8-8-17.8-17.8V18.1c0-9.8,8-17.8,17.8-17.8h102.9c9.8,0,17.8,8,17.8,17.8v102.9
	C138.2,130.8,130.3,138.7,120.4,138.7z"/>
<g class="st1">
	<path class="st2" d="M49.7,43.4c12.7,0,18.1,6,18.1,14.8c0,6.2-2.7,10-7.8,12c5.1,2.1,8,6.1,8,12.3c0,8.6-5.4,14.9-18.1,14.9h-24
		c-3,0-4.5-1.4-4.5-4.4V47.8c0-3,1.4-4.4,4.5-4.4H49.7z M30.7,66.2h19.2c5.6,0,8.3-2.1,8.3-6.5c0-4.2-2.5-7-8.2-7H31.7
		c-0.6,0-1,0.3-1,1V66.2z M30.7,87.1c0,0.6,0.4,0.9,1,0.9h18.4c5.7,0,8.3-2.6,8.3-7c0-4.6-2.8-7-8.3-7H30.7V87.1z"/>
	<path class="st2" d="M115.7,43.4v9.4H100v44.6h-9.5V52.8H74.7v-9.4H115.7z"/>
</g>
<g>
	<path class="st3" d="M50.7,42.4c12.7,0,18.1,6,18.1,14.8c0,6.2-2.7,10-7.8,12c5.1,2.1,8,6.1,8,12.3c0,8.6-5.4,14.9-18.1,14.9h-24
		c-3,0-4.5-1.4-4.5-4.4V46.8c0-3,1.4-4.4,4.5-4.4H50.7z M31.7,65.2h19.2c5.6,0,8.3-2.1,8.3-6.5c0-4.2-2.5-7-8.2-7H32.7
		c-0.6,0-1,0.3-1,1V65.2z M31.7,86.1c0,0.6,0.4,0.9,1,0.9h18.4c5.7,0,8.3-2.6,8.3-7c0-4.6-2.8-7-8.3-7H31.7V86.1z"/>
	<path class="st3" d="M116.7,42.4v9.4H101v44.6h-9.5V51.8H75.7v-9.4H116.7z"/>
</g>
<polygon class="st4" points="74.2,96 86.8,130.4 92.9,122.3 103.1,133.1 106.3,130.1 109.5,127.1 99.3,116.2 107.8,110.6 "/>
</svg>
